<svg width="16" height="44" viewBox="0 0 16 44" fill="none" xmlns="http://www.w3.org/2000/svg">
<path d="M14.7982 27.202L10.9282 23.332C11.6292 22.403 12.0502 21.251 12.0502 20C12.0502 16.94 9.5612 14.45 6.5002 14.45C3.4402 14.45 0.950195 16.94 0.950195 20C0.950195 23.061 3.4402 25.55 6.5002 25.55C7.7512 25.55 8.9032 25.129 9.8322 24.428L13.7022 28.298C13.8532 28.449 14.0522 28.526 14.2502 28.526C14.4482 28.526 14.6462 28.45 14.7982 28.298C15.1012 27.995 15.1012 27.505 14.7982 27.202ZM2.0502 20C2.0502 17.546 4.0472 15.55 6.5002 15.55C8.9542 15.55 10.9502 17.547 10.9502 20C10.9502 22.453 8.9542 24.45 6.5002 24.45C4.0462 24.45 2.0502 22.454 2.0502 20Z" fill="black" fill-opacity="0.8"/>
</svg>
