<svg width="15" height="44" viewBox="0 0 15 44" fill="none" xmlns="http://www.w3.org/2000/svg">
<path d="M13.086 17.4538C12.564 17.774 12.1316 18.2217 11.8293 18.7549C11.527 19.2881 11.3647 19.8894 11.3575 20.5026C11.3595 21.1928 11.5636 21.8671 11.9445 22.4422C12.3253 23.0173 12.8661 23.4678 13.5 23.738C13.2501 24.5458 12.8802 25.3114 12.4028 26.009C11.7198 26.9941 11.0055 27.9792 9.91879 27.9792C8.83205 27.9792 8.55254 27.3467 7.30015 27.3467C6.07882 27.3467 5.64408 28 4.65044 28C3.6568 28 2.96341 27.0874 2.16639 25.9675C1.11359 24.3986 0.534985 22.5587 0.5 20.6685C0.5 17.5575 2.51835 15.9088 4.50553 15.9088C5.5613 15.9088 6.4411 16.6035 7.10352 16.6035C7.73488 16.6035 8.7182 15.8672 9.91879 15.8672C10.5361 15.8513 11.1478 15.9876 11.7001 16.2643C12.2524 16.541 12.7284 16.9495 13.086 17.4538ZM9.34956 14.5503C9.8788 13.9265 10.1784 13.1397 10.1983 12.3213C10.1992 12.2134 10.1888 12.1057 10.1672 12C9.25812 12.089 8.41746 12.5231 7.81766 13.2133C7.28332 13.8122 6.97244 14.578 6.93787 15.3805C6.93827 15.4782 6.94868 15.5755 6.96893 15.6709C7.0406 15.6845 7.11336 15.6915 7.1863 15.6917C7.60528 15.6583 8.0131 15.5399 8.38498 15.3437C8.75686 15.1475 9.08504 14.8775 9.34956 14.5503Z" fill="black" fill-opacity="0.8"/>
</svg>
